<svg width="38" height="38" viewBox="0 0 38 38" fill="none" xmlns="http://www.w3.org/2000/svg">
<path d="M15.9683 1.87584C15.9917 3.4149 15.9917 3.43053 16.2027 3.75084C16.5855 4.32115 16.687 4.34459 18.7652 4.39146C20.6011 4.43053 20.6011 4.43053 20.9683 4.64928C22.3433 5.45396 22.2574 7.36803 20.812 8.07896C20.4761 8.24303 20.3042 8.26646 18.8433 8.30553C17.4995 8.34459 17.1714 8.38365 16.7964 8.51646C14.648 9.2899 13.5074 11.5243 14.1949 13.5868C14.437 14.3133 14.8277 14.9071 15.3433 15.3602C16.0152 15.954 16.9761 16.3446 17.7574 16.3446C18.3199 16.3446 18.9136 16.4852 19.4683 16.743C19.7808 16.8837 19.9839 16.9462 19.9995 16.8915C20.0152 16.8446 20.2417 16.4852 20.4995 16.0868C21.0699 15.2196 22.2417 14.0243 23.062 13.4774C24.8511 12.2821 26.6245 11.7352 28.7339 11.7352H29.773L29.9683 11.1258C30.2339 10.2899 30.8589 7.77428 30.9214 7.2899L30.9761 6.89146L30.5152 6.36803C27.1324 2.46959 22.4527 0.328964 17.3355 0.328964H15.937L15.9683 1.87584Z" fill="white"/>
<path d="M13.9214 0.633274C10.5854 1.34421 7.69482 2.85984 5.29639 5.17234L4.52295 5.92234L4.83545 6.35202C5.60107 7.37546 5.85107 8.07859 5.96045 9.46921C6.04639 10.602 6.22607 11.2817 6.6167 11.9067C6.76514 12.1567 7.01514 12.563 7.16357 12.8051C7.51514 13.3755 7.73389 13.9692 7.88232 14.7192C8.0542 15.6489 7.9917 21.188 7.8042 21.852C7.58545 22.6098 7.26514 23.2114 6.48389 24.3598C5.41357 25.938 5.38232 26.0317 5.34326 28.3442L5.31201 30.2192L5.98389 30.7973C6.6792 31.3911 7.78076 32.2114 8.15576 32.4067C8.40576 32.5395 8.21045 32.8051 9.78076 30.1958C10.9839 28.188 11.1401 27.9848 11.7495 27.5942C12.4761 27.1176 12.9683 27.0239 14.5542 27.063C15.8901 27.0864 15.9214 27.0942 16.4214 27.3286C16.7026 27.4692 17.2651 27.8286 17.6714 28.1333C18.5776 28.813 18.9839 28.9692 19.9683 29.0473L20.7339 29.102L20.3823 28.4067C18.7886 25.227 18.3276 21.3676 19.2261 18.7036C19.3667 18.2895 19.3823 18.1801 19.2964 18.0786C19.1011 17.8442 18.5542 17.6801 17.7417 17.602C16.2026 17.4536 15.3354 17.0551 14.312 16.0317C13.7729 15.5005 13.5776 15.2348 13.312 14.7036C12.9136 13.8911 12.7495 13.2192 12.7495 12.3911C12.7495 10.3364 14.0308 8.3989 15.9683 7.5239C16.7729 7.15671 17.437 7.04734 18.8042 7.04734C20.1011 7.04734 20.4761 6.96921 20.6323 6.67234C20.7651 6.43015 20.7339 6.09421 20.562 5.87546L20.4136 5.68015L18.5933 5.64109C16.8276 5.60202 16.7573 5.59421 16.3354 5.3989C15.7183 5.10984 15.2964 4.69577 14.9995 4.09421L14.7417 3.57077L14.7183 2.03171C14.7026 1.18015 14.6636 0.484837 14.6401 0.492649C14.6089 0.492649 14.2886 0.555149 13.9214 0.633274Z" fill="white"/>
<path d="M3.24951 7.53906C2.60889 8.42969 2.32764 8.89844 1.82764 9.89844C0.593262 12.375 0.0151367 14.8359 0.0151367 17.6719C0.0151367 21 0.874512 24.0312 2.60889 26.8438C3.0542 27.5703 3.9292 28.7578 4.02295 28.7656C4.0542 28.7656 4.07764 28.3125 4.07764 27.7656C4.07764 26.0703 4.31982 25.375 5.5542 23.5234C6.73389 21.7734 6.69483 21.9531 6.69483 18.0625C6.69483 14.3438 6.69483 14.3438 5.85107 13.0234C5.04639 11.7656 4.82764 11.1094 4.71045 9.57031C4.66357 8.96094 4.58545 8.5 4.46826 8.20312C4.29639 7.73438 3.85889 7.03125 3.72607 6.99219C3.68701 6.98438 3.46826 7.22656 3.24951 7.53906Z" fill="white"/>
<path d="M31.9059 8.72656C31.859 8.89844 31.7809 9.19531 31.734 9.39062C31.6872 9.58594 31.5075 10.2422 31.3278 10.8594C31.1559 11.4688 31.0231 11.9844 31.0387 11.9922C31.0544 12.0078 31.3356 12.0938 31.6559 12.1953C32.2887 12.3906 33.2809 12.8438 33.8356 13.1797L34.1715 13.3906L34.1169 13.1328C33.8903 12.0859 32.6637 9.26562 32.1715 8.64844L31.984 8.41406L31.9059 8.72656Z" fill="white"/>
<path d="M27.0074 13.1406C24.0933 13.7734 21.7027 15.7422 20.6402 18.3984C20.1324 19.6719 20.0621 20.0625 20.0621 21.7734C20.0543 23.4297 20.1089 23.8516 20.5308 25.3047C21.523 28.7422 24.4761 33.3594 28.023 37.0234L28.6871 37.7109L29.3668 37.0078C33.0464 33.1719 35.8902 28.6797 36.8824 25.1406C37.2808 23.7344 37.3824 22.8906 37.3355 21.4687C37.2964 20.1016 37.1793 19.5078 36.7339 18.3984C35.7418 15.9141 33.4761 13.9453 30.8199 13.2422C29.7574 12.9609 28.0308 12.9141 27.0074 13.1406ZM30.1324 14.5391C32.773 15.0859 34.8824 17.0312 35.6871 19.6641C35.8824 20.3047 35.9058 20.4844 35.9058 21.6172C35.9136 22.9609 35.8511 23.3281 35.4293 24.375C35.1011 25.2031 34.6324 25.9297 33.9683 26.6328C32.9293 27.7422 31.5621 28.5156 30.1402 28.8047C29.3511 28.9609 28.023 28.9609 27.2339 28.8047C24.9293 28.3359 22.9136 26.6641 21.9605 24.4375C21.5464 23.4766 21.4605 22.9687 21.4683 21.6172C21.4683 20.4922 21.4918 20.2969 21.6793 19.6797C22.523 16.9375 24.7652 14.9297 27.4996 14.4687C28.1871 14.3594 29.398 14.3906 30.1324 14.5391Z" fill="white"/>
<path d="M27.398 15.7734C26.2261 16.0234 25.2339 16.5781 24.3511 17.4766C23.2183 18.6328 22.6714 20 22.6714 21.6562C22.6714 25.0391 25.2964 27.6719 28.6636 27.6719C29.7417 27.6719 30.4292 27.5078 31.4136 27.0312C32.1167 26.6875 32.3276 26.5312 32.898 25.9609C33.8355 25.0234 34.3355 24.1172 34.6011 22.8828C34.7808 22.0234 34.7105 20.625 34.437 19.8203C33.8667 18.125 32.6245 16.7656 31.0386 16.1016C29.9683 15.6562 28.5464 15.5234 27.398 15.7734Z" fill="white"/>
<path d="M12.984 28.3672C12.234 28.6016 11.9996 28.8672 10.7418 30.9844C10.1559 31.9766 9.62463 32.8672 9.56994 32.9609C9.46057 33.125 9.47619 33.1406 9.84338 33.3281C11.0465 33.9375 12.8199 34.5 14.4371 34.7969C15.3121 34.9531 15.7028 34.9766 17.359 34.9766C19.0231 34.9766 19.4059 34.9531 20.2887 34.7891C21.2887 34.6094 22.8199 34.2031 23.3981 33.9609L23.6949 33.8359L23.3668 33.3906C23.1871 33.1484 22.7496 32.5 22.3903 31.9531C22.0309 31.4141 21.6481 30.8906 21.5309 30.8047C21.2028 30.5469 20.5621 30.3516 19.8434 30.2969C18.6324 30.2031 18.0934 29.9766 16.8199 29.0469C16.3824 28.7188 15.8903 28.4219 15.7262 28.375C15.4059 28.2891 13.2809 28.2812 12.984 28.3672Z" fill="white"/>
</svg>
